<svg width="123" height="123" viewBox="0 0 123 123" xmlns="http://www.w3.org/2000/svg">
  <path d="M 32 18 
           C 18 18, 8 28, 8 42
           L 8 50
           C 8 65, 18 75, 32 75
           L 58 75
           C 65 75, 70 70, 70 63
           L 70 55
           C 70 48, 65 43, 58 43
           L 32 43
           C 28 43, 25 46, 25 50
           L 25 62
           C 25 66, 28 69, 32 69
           L 72 69
           C 86 69, 96 79, 96 93
           L 96 101
           C 96 115, 86 125, 72 125
           L 32 125
           C 18 125, 8 115, 8 101
           L 8 93
           C 8 79, 18 69, 32 69
           Z" 
        fill="#69BB28"/>
</svg>

