<svg width="123" height="123" viewBox="0 0 123 123" xmlns="http://www.w3.org/2000/svg">
  <!-- Smooth elegant uppercase C with thicker strokes at top/bottom curves, clean minimalist design -->
  <path d="M 30 15 
           C 18 15, 8 25, 8 38
           L 8 45
           C 8 58, 18 68, 30 68
           L 55 68
           C 62 68, 67 63, 67 56
           L 67 48
           C 67 41, 62 36, 55 36
           L 30 36
           C 26 36, 23 39, 23 43
           L 23 55
           C 23 59, 26 62, 30 62
           L 70 62
           C 82 62, 92 72, 92 85
           L 92 92
           C 92 105, 82 115, 70 115
           L 30 115
           C 18 115, 8 105, 8 92
           L 8 85
           C 8 72, 18 62, 30 62
           Z" 
        fill="#69BB28"/>
</svg>
